<svg xmlns="http://www.w3.org/2000/svg" width="600" height="323.113" viewBox="0 0 600 323.113"><path d="M22.907 68.35c12.963 0 22.317-7.807 22.317-23.053V15.762h-9.65v29.535c0 8.838-4.565 14.215-12.594 14.215S9.65 54.577 9.65 45.297V15.762H0v29.535C0 60.837 10.532 68.35 22.907 68.35zm40.436-35.869l27.105 34.838v-.074h6.04v-51.63h-9.723v32.039L61.5 15.688h-7.88v51.557h9.722V32.481zm49.937-16.793h-9.649v51.557h9.65V15.688zm35.28 51.778l21.434-51.778h-10.901L143.478 55.83l-15.54-40.14h-10.9l21.432 51.777h10.09zm64.006-9.795H183.62V46.033h27.915v-9.06H183.62V25.117h28.946v-9.428h-38.594v51.557h38.594v-9.574zm15.468-7.66h9.354l15.025 17.234h11.563v-.662l-15.614-17.604c9.796-1.988 13.036-9.133 13.036-16.203 0-8.912-6.407-17.014-18.56-17.088-8.176 0-16.351-.074-24.526-.074v51.631h9.722V50.011zm0-25.263h14.804c6.114 0 8.838 4.124 8.838 8.249s-2.65 8.249-8.838 8.249h-14.804V24.748zm81.532 27.399c0-12.3-10.016-15.1-20.769-16.425-6.187-.737-11.49-1.989-11.49-6.482 0-3.83 3.462-6.85 10.68-6.85 5.597 0 10.458 2.8 12.227 5.745l7.733-3.977c-3.904-7.954-12.226-10.238-20.255-10.238-9.501.074-19.96 4.42-19.96 15.026 0 11.563 9.722 14.362 20.254 15.614 6.85.737 11.932 2.725 11.932 7.587 0 5.597-5.744 7.733-11.858 7.733-6.26 0-12.226-2.504-14.51-8.176l-8.101 4.199c3.83 9.428 11.931 12.668 22.464 12.668 11.49 0 21.653-4.935 21.653-16.424zm15.395-36.459h-9.648v51.557h9.648V15.688zm22.98 51.557h9.722V24.526h16.352v-8.838H331.59v8.838h16.352v42.72zm68.57-9.574h-28.945V46.033h27.915v-9.06h-27.915V25.117h28.945v-9.428h-38.593v51.557h38.593v-9.574zM409.367.368V0h-10.606l-5.45 10.017v.442h7.954l8.102-10.09zM.399 74.818v187.627h20.895v-60.274c69.454-5.18 69.993-51.32 69.234-61.636-.12-1.614-.207-3.227-.251-4.84C88.142 61.06.399 74.816.399 74.816zm20.406 110.338V91.104s51.528 3.886 51.528 48.602c0 44.722-51.528 45.45-51.528 45.45zm135.616 22.522v54.767h20.901V77.737S85.944 44.925 85.944 262.445h17.982s-.822-24.404 2.198-54.767h50.297zm0-112.933v91.711h-47.623c6.021-38.757 19.162-80.133 47.623-91.71zM243.92 212.38c42.958-15.313 41.997-53.7 41.087-63.055-.151-1.589-.27-3.19-.346-4.784-3.447-71.5-86.436-64.864-86.436-64.864v182.768h19.444v-42.292l6.806-1.457c11.666 75.826 63.194 71.87 63.194 71.87v-17.912c-45.696-8.752-43.75-60.274-43.75-60.274zm-26.25-10.698V97.665s49.58 7.29 49.58 52.011c0 44.716-49.58 52.006-49.58 52.006zm74.369 60.763h20.9V79.514h-20.9v182.931zM419.88 202.9c-2.191-8.508-4.137-36.215-51.773-45.206 0 0-41.557-10.209-19.2-47.635 0 0 8.263-12.884 30.866-6.806s17.988 25.76 17.988 25.76l16.77-.238s3.403-44.238-40.83-45.695c-16.61-.547-27.943 5.007-35.62 12.156-16.206 15.095-19.409 39.88-7.543 58.58 5.974 9.416 16.373 18.415 34.411 22.594 42.33 9.802 35.65 41.66 34.242 46.903-.117.438-.23.873-.327 1.316-.8 3.63-6.337 22.97-33.425 22.748-29.898-.245-26.006-36.943-26.006-36.943h-19.69s-4.859 54.925 49.338 54.925c54.196 0 52.984-53.952 50.8-62.46zM555.7 165.919c16.889-10.102 27.744-25.817 27.744-43.466 0-30.489-32.39-55.208-72.34-55.208-39.957 0-72.348 24.72-72.348 55.208 0 18.427 11.828 34.739 30.005 44.772-24.782 11.339-41.313 31.776-41.313 55.094 0 35.65 38.625 64.55 86.28 64.55 47.647 0 86.273-28.9 86.273-64.55 0-24.248-17.875-45.369-44.301-56.4zm-94.907-43.466c0-19.508 22.521-35.323 50.31-35.323 27.783 0 50.304 15.815 50.304 35.323s-22.521 35.323-50.304 35.323c-27.789 0-50.31-15.816-50.31-35.323zm52.67 144.149c-34.77 0-62.96-19.753-62.96-44.113 0-24.367 28.19-44.12 62.96-44.12s62.956 19.753 62.956 44.12c0 24.36-28.185 44.113-62.955 44.113zM12.39 317.336l-7.047-18.201H.4l9.719 23.477h4.575l9.719-23.477h-4.943l-7.08 18.2zm14.133 5.176h4.375v-23.377h-4.375v23.377zm23.879-8.883l-11.455-14.494h-3.574v23.377h4.409V306.75l12.29 15.797v-.034h2.738v-23.411h-4.408v14.528zm20.8 5.276c-5.778 0-8.016-4.04-8.05-7.915-.033-3.907 2.405-8.115 8.05-8.115 2.036 0 4.107.701 5.643 2.204l2.94-2.839c-2.405-2.37-5.411-3.573-8.584-3.573-8.45 0-12.423 6.212-12.39 12.323.033 6.079 3.707 12.056 12.39 12.056 3.373 0 6.48-1.101 8.884-3.472l-3.006-3.04c-1.536 1.537-3.84 2.371-5.878 2.371zm12.542 3.607h17.5v-4.341H88.118v-5.277h12.658v-4.108H88.118v-5.376h13.125v-4.275h-17.5v23.377zm37.598-8.883l-11.455-14.494h-3.574v23.377h4.409V306.75l12.29 15.797v-.034h2.738v-23.411h-4.408v14.528zm23.812 0l-11.455-14.494h-3.574v23.377h4.409V306.75l12.29 15.797v-.034h2.738v-23.411h-4.408v14.528zm10.266 8.883h17.5v-4.341h-13.125v-5.277h12.657v-4.108h-12.657v-5.376h13.125v-4.275h-17.5v23.377zm29.603-14.294c-2.806-.333-5.21-.901-5.21-2.938 0-1.737 1.569-3.106 4.842-3.106 2.538 0 4.742 1.269 5.544 2.605l3.506-1.804c-1.77-3.607-5.543-4.642-9.183-4.642-4.309.033-9.051 2.004-9.051 6.813 0 5.243 4.408 6.513 9.184 7.08 3.106.334 5.41 1.236 5.41 3.44 0 2.538-2.605 3.507-5.377 3.507-2.838 0-5.543-1.136-6.579-3.707l-3.674 1.903c1.737 4.275 5.41 5.744 10.187 5.744 5.21 0 9.818-2.237 9.818-7.447 0-5.577-4.541-6.846-9.417-7.448zm10.473 5.277h12.323v-3.74h-12.323v3.74zm24.386-5.277c-2.805-.333-5.21-.901-5.21-2.938 0-1.737 1.57-3.106 4.842-3.106 2.539 0 4.743 1.269 5.544 2.605l3.507-1.804c-1.77-3.607-5.544-4.642-9.184-4.642-4.308.033-9.05 2.004-9.05 6.813 0 5.243 4.408 6.513 9.183 7.08 3.107.334 5.41 1.236 5.41 3.44 0 2.538-2.604 3.507-5.376 3.507-2.839 0-5.544-1.136-6.58-3.707l-3.673 1.903c1.737 4.275 5.41 5.744 10.186 5.744 5.21 0 9.819-2.237 9.819-7.447 0-5.577-4.542-6.846-9.418-7.448zm21.534-9.083l-10.487 23.377h4.776l2.004-4.408h12.223l1.97 4.408h4.81l-10.487-23.377h-4.809zm-1.937 14.86l4.341-9.95 4.342 9.95h-8.683zm18.274 8.517h4.375v-23.377h-4.375v23.377zm25.134-8.883l-11.455-14.494h-3.573v23.377h4.408V306.75l12.29 15.797v-.034h2.739v-23.411h-4.409v14.528zm26.317-14.494h-19.236v4.007h7.414v19.37h4.408v-19.37h7.414v-4.007zm-1.563 14.36h12.323v-3.74H307.64v3.74zm24.647-14.36h-9.184v23.377h9.184c8.182 0 11.789-5.978 11.689-11.889-.1-5.778-3.674-11.488-11.69-11.488zm0 19.136h-4.81v-14.962h4.81c5.076 0 7.213 3.64 7.313 7.281.1 3.807-2.003 7.68-7.313 7.68zm14.527 4.241h17.5v-4.341H351.19v-5.277h12.657v-4.108H351.19v-5.376h13.125v-4.275h-17.5v23.377zm37.597-8.883l-11.455-14.494h-3.573v23.377h4.408V306.75l12.29 15.797v-.034h2.738v-23.411h-4.408v14.528zm8.483 8.883h4.375v-23.377h-4.375v23.377zm18.435-14.294c-2.806-.333-5.21-.901-5.21-2.938 0-1.737 1.57-3.106 4.843-3.106 2.537 0 4.742 1.269 5.543 2.605l3.507-1.804c-1.77-3.607-5.544-4.642-9.184-4.642-4.309.033-9.05 2.004-9.05 6.813 0 5.243 4.408 6.513 9.184 7.08 3.105.334 5.41 1.236 5.41 3.44 0 2.538-2.605 3.507-5.377 3.507-2.84 0-5.544-1.136-6.58-3.707l-3.673 1.903c1.737 4.275 5.41 5.744 10.186 5.744 5.21 0 9.819-2.237 9.819-7.447 0-5.577-4.542-6.846-9.418-7.448z"/></svg>